<svg width="500" height="500" viewBox="0 0 500 500" fill="none" xmlns="http://www.w3.org/2000/svg">
<g clip-path="url(#clip0_2044_8207)">
<rect width="500" height="500" fill="white"/>
<path d="M249.984 454.271C145.245 454.271 57.0112 394.684 30.3629 313.521C28.8568 308.933 24.6577 305.694 19.8296 305.694L10.7238 305.694C4.8011 305.694 -0.000209924 300.893 -0.000209753 294.97L-0.000204401 109.055C-0.000204231 103.132 4.8011 98.3311 10.7238 98.3311L23.7116 98.3311C27.6902 98.3311 31.3419 96.1283 33.1977 92.6089L54.8996 51.4507C56.7553 47.9313 60.407 45.7285 64.3857 45.7285L435.612 45.7285C439.591 45.7285 443.242 47.9313 445.098 51.4507L466.8 92.6089C468.656 96.1283 472.307 98.3311 476.286 98.3311L489.263 98.3311C495.186 98.3311 499.987 103.132 499.987 109.055L499.987 294.97C499.987 300.893 495.186 305.694 489.263 305.694L480.14 305.694C475.312 305.694 471.112 308.934 469.606 313.521C442.958 394.684 354.724 454.271 249.984 454.271Z" fill="white"/>
<path d="M250.009 202.867L249.995 299.759" stroke="#3D5379" stroke-width="9.78052" stroke-linecap="round"/>
<path d="M292.061 251.322L207.963 251.286" stroke="#3D5379" stroke-width="9.78052" stroke-linecap="round"/>
<circle cx="250.011" cy="251.296" r="21.1639" transform="rotate(-180 250.011 251.296)" fill="#3D5379" stroke="#3D5379" stroke-width="1.66939"/>
<mask id="path-5-inside-1_2044_8207" fill="white">
<path d="M249.997 454.271C145.258 454.271 57.0244 394.684 30.3761 313.521C28.87 308.933 24.6709 305.694 19.8428 305.694L10.737 305.694C4.81428 305.694 0.0129737 300.893 0.0129738 294.97L0.0129792 109.055C0.0129794 103.132 4.81429 98.3311 10.737 98.3311L23.7247 98.3311C27.7034 98.3311 31.3551 96.1283 33.2108 92.6089L54.9128 51.4507C56.7685 47.9313 60.4202 45.7285 64.3989 45.7285L435.625 45.7285C439.604 45.7285 443.255 47.9313 445.111 51.4507L466.813 92.6089C468.669 96.1283 472.321 98.3311 476.299 98.3311L489.276 98.3311C495.199 98.3311 500 103.132 500 109.055L500 294.97C500 300.893 495.199 305.694 489.276 305.694L480.153 305.694C475.325 305.694 471.126 308.934 469.62 313.521C442.971 394.684 354.737 454.271 249.997 454.271Z"/>
</mask>
<path d="M249.997 454.271C145.258 454.271 57.0244 394.684 30.3761 313.521C28.87 308.933 24.6709 305.694 19.8428 305.694L10.737 305.694C4.81428 305.694 0.0129737 300.893 0.0129738 294.97L0.0129792 109.055C0.0129794 103.132 4.81429 98.3311 10.737 98.3311L23.7247 98.3311C27.7034 98.3311 31.3551 96.1283 33.2108 92.6089L54.9128 51.4507C56.7685 47.9313 60.4202 45.7285 64.3989 45.7285L435.625 45.7285C439.604 45.7285 443.255 47.9313 445.111 51.4507L466.813 92.6089C468.669 96.1283 472.321 98.3311 476.299 98.3311L489.276 98.3311C495.199 98.3311 500 103.132 500 109.055L500 294.97C500 300.893 495.199 305.694 489.276 305.694L480.153 305.694C475.325 305.694 471.126 308.934 469.62 313.521C442.971 394.684 354.737 454.271 249.997 454.271Z" fill="#0C7BCC" fill-opacity="0.25"/>
<path d="M249.997 454.271L249.997 473.814L249.997 473.814L249.997 454.271ZM469.62 313.521L488.187 319.617L469.62 313.521ZM489.276 98.3311L489.276 78.7884L489.276 98.3311ZM466.813 92.6089L484.1 83.4939L466.813 92.6089ZM476.299 98.3311L476.299 117.874L476.299 98.3311ZM445.111 51.4507L427.824 60.5657L445.111 51.4507ZM54.9128 51.4507L37.626 42.3357L54.9128 51.4507ZM23.7247 98.3311L23.7247 117.874L23.7247 98.3311ZM33.2108 92.6089L50.4976 101.724L33.2108 92.6089ZM0.0129792 109.055L-19.5297 109.055L0.0129792 109.055ZM0.0129738 294.97L19.5556 294.97L0.0129738 294.97ZM30.3761 313.521L48.9436 307.424L30.3761 313.521ZM249.997 454.271L249.997 434.729C152.043 434.729 72.4746 379.094 48.9436 307.424L30.3761 313.521L11.8086 319.617C41.5741 410.274 138.473 473.814 249.997 473.814L249.997 454.271ZM19.8428 305.694L19.8428 286.152L10.737 286.152L10.737 305.694L10.737 325.237L19.8428 325.237L19.8428 305.694ZM0.0129738 294.97L19.5556 294.97L19.5556 109.055L0.0129792 109.055L-19.5297 109.055L-19.5297 294.97L0.0129738 294.97ZM10.737 98.3311L10.737 117.874L23.7247 117.874L23.7247 98.3311L23.7247 78.7884L10.737 78.7884L10.737 98.3311ZM33.2108 92.6089L50.4976 101.724L72.1996 60.5657L54.9128 51.4507L37.626 42.3357L15.9241 83.4939L33.2108 92.6089ZM64.3989 45.7285L64.3989 65.2712L435.625 65.2712L435.625 45.7285L435.625 26.1859L64.3989 26.1859L64.3989 45.7285ZM445.111 51.4507L427.824 60.5657L449.526 101.724L466.813 92.6089L484.1 83.4939L462.398 42.3357L445.111 51.4507ZM476.299 98.3311L476.299 117.874L489.276 117.874L489.276 98.3311L489.276 78.7884L476.299 78.7884L476.299 98.3311ZM500 109.055L480.458 109.055L480.458 294.97L500 294.97L519.543 294.97L519.543 109.055L500 109.055ZM489.276 305.694L489.276 286.152L480.153 286.152L480.153 305.694L480.153 325.237L489.276 325.237L489.276 305.694ZM469.62 313.521L451.052 307.424C427.521 379.094 347.952 434.729 249.997 434.729L249.997 454.271L249.997 473.814C361.522 473.814 458.422 410.275 488.187 319.617L469.62 313.521ZM480.153 305.694L480.153 286.152C466.327 286.152 455.015 295.353 451.052 307.424L469.62 313.521L488.187 319.617C487.236 322.514 484.323 325.237 480.153 325.237L480.153 305.694ZM500 294.97L480.458 294.97C480.458 290.1 484.406 286.152 489.276 286.152L489.276 305.694L489.276 325.237C505.992 325.237 519.543 311.686 519.543 294.97L500 294.97ZM489.276 98.3311L489.276 117.874C484.406 117.874 480.458 113.925 480.458 109.055L500 109.055L519.543 109.055C519.543 92.3393 505.992 78.7884 489.276 78.7884L489.276 98.3311ZM466.813 92.6089L449.526 101.724C454.764 111.657 465.07 117.874 476.299 117.874L476.299 98.3311L476.299 78.7884C479.571 78.7884 482.574 80.5998 484.1 83.4939L466.813 92.6089ZM435.625 45.7285L435.625 65.2712C432.353 65.2712 429.35 63.4598 427.824 60.5657L445.111 51.4507L462.398 42.3357C457.161 32.4028 446.854 26.1859 435.625 26.1859L435.625 45.7285ZM54.9128 51.4507L72.1996 60.5657C70.6735 63.4598 67.6707 65.2712 64.3989 65.2712L64.3989 45.7285L64.3989 26.1859C53.1697 26.1859 42.8634 32.4028 37.626 42.3357L54.9128 51.4507ZM23.7247 98.3311L23.7247 117.874C34.9539 117.874 45.2602 111.657 50.4976 101.724L33.2108 92.6089L15.9241 83.4939C17.4501 80.5998 20.453 78.7884 23.7247 78.7884L23.7247 98.3311ZM0.0129792 109.055L19.5556 109.055C19.5556 113.925 15.6074 117.874 10.737 117.874L10.737 98.3311L10.737 78.7884C-5.97884 78.7884 -19.5297 92.3392 -19.5297 109.055L0.0129792 109.055ZM10.737 305.694L10.737 286.152C15.6074 286.152 19.5556 290.1 19.5556 294.97L0.0129738 294.97L-19.5297 294.97C-19.5297 311.686 -5.97885 325.237 10.737 325.237L10.737 305.694ZM30.3761 313.521L48.9436 307.424C44.9803 295.353 33.6688 286.152 19.8428 286.152L19.8428 305.694L19.8428 325.237C15.6729 325.237 12.7597 322.514 11.8086 319.617L30.3761 313.521Z" fill="#3D5379" mask="url(#path-5-inside-1_2044_8207)"/>
<path d="M248.581 75.8005C249.457 75.2517 250.569 75.2517 251.445 75.8005L306.995 110.599C309.291 112.037 308.272 115.584 305.563 115.584H194.463C191.754 115.584 190.735 112.037 193.031 110.599L248.581 75.8005Z" fill="#3D5379"/>
</g>
<defs>
<clipPath id="clip0_2044_8207">
<rect width="500" height="500" fill="white"/>
</clipPath>
</defs>
</svg>
